# xmcd
#
# Track frame offsets:
#	150
#	32537
#	49655
#	64260
#	90962
#	109962
#	127220
#	148400
#	170740
#	203095
#	220207
#	234850
#	257820
#	276857
#	294115
#	315300
#
# Disc length: 4501 seconds
#
# Revision: 1
# Processed by: cddbd v1.5.1PL0 Copyright (c) Steve Scherf et al.
# Submitted via: audiograbber 1.83.01
#
DISCID=ed119310
DTITLE=Eric Clapton - Jam with Eric Clapton
DYEAR=1998
DGENRE=Blues
TTITLE0=Layla (Backing Track)
TTITLE1=Wonderful Tonight (Backing Track)
TTITLE2=Hideaway (Backing Track)
TTITLE3=White Room (Backing Track)
TTITLE4=Crossroads (Backing Track)
TTITLE5=Cocaine (Backing Track)
TTITLE6=Tears In Heaven (Backing Track)
TTITLE7=Bad Love (Backing Track)
TTITLE8=Layla
TTITLE9=Wonderful Tonight
TTITLE10=Hideaway
TTITLE11=White Room
TTITLE12=Crossroads
TTITLE13=Cocaine
TTITLE14=Tears In Heaven
TTITLE15=Bad Love
EXTD=
EXTT0=
EXTT1=
EXTT2=
EXTT3=
EXTT4=
EXTT5=
EXTT6=
EXTT7=
EXTT8=
EXTT9=
EXTT10=
EXTT11=
EXTT12=
EXTT13=
EXTT14=
EXTT15=
PLAYORDER=
